<svg width="273" height="122" viewBox="0 0 273 122" fill="none" xmlns="http://www.w3.org/2000/svg">
<path d="M11.7 52.572L-6.56396e-06 2.34002H8.34599L16.848 40.014L26.364 8.42402V2.34002H33.306L43.992 40.014L52.65 2.34002H60.918L49.296 52.572H40.95L30.888 17.394L20.202 52.572H11.7ZM66.5328 52.572V1.95503e-05H75.0348V19.188C76.6468 17.888 78.5708 16.848 80.8068 16.068C83.0428 15.236 85.5648 14.82 88.3728 14.82C93.0528 14.82 96.5108 15.938 98.7468 18.174C100.983 20.41 102.101 23.894 102.101 28.626V52.572H93.6768V29.016C93.6768 26.156 93.0528 24.154 91.8048 23.01C90.6088 21.866 88.5028 21.294 85.4868 21.294C83.6148 21.294 81.7168 21.71 79.7928 22.542C77.8688 23.322 76.2828 24.362 75.0348 25.662V52.572H66.5328ZM117.992 66.3C115.184 66.3 112.792 65.936 110.816 65.208V58.89C111.7 59.202 112.506 59.41 113.234 59.514C114.014 59.618 114.794 59.67 115.574 59.67C117.186 59.67 118.486 59.41 119.474 58.89C120.462 58.37 121.32 57.538 122.048 56.394C122.828 55.302 123.66 53.872 124.544 52.104L108.086 15.6H116.9L128.756 43.056L140.768 15.6H149.504L134.45 50.466C133.15 53.586 131.746 56.316 130.238 58.656C128.782 61.048 127.066 62.92 125.09 64.272C123.166 65.624 120.8 66.3 117.992 66.3ZM1.48199 120.572V70.34H9.98399V120.572H1.48199ZM19.8394 120.572V83.6H27.6394L28.1074 87.89C29.8754 86.746 31.9814 85.706 34.4254 84.77C36.8694 83.834 39.2874 83.184 41.6794 82.82V89.294C40.2234 89.554 38.6374 89.944 36.9214 90.464C35.2574 90.932 33.6714 91.478 32.1634 92.102C30.6554 92.674 29.3814 93.272 28.3414 93.896V120.572H19.8394ZM64.0532 121.352C57.3972 121.352 52.5092 119.688 49.3892 116.36C46.3212 113.032 44.7872 108.274 44.7872 102.086C44.7872 95.898 46.3472 91.14 49.4672 87.812C52.5872 84.484 57.4492 82.82 64.0532 82.82C70.7092 82.82 75.5972 84.484 78.7172 87.812C81.8372 91.14 83.3972 95.898 83.3972 102.086C83.3972 108.274 81.8372 113.032 78.7172 116.36C75.6492 119.688 70.7612 121.352 64.0532 121.352ZM64.0532 114.176C67.9532 114.176 70.7092 113.24 72.3212 111.368C73.9852 109.444 74.8172 106.35 74.8172 102.086C74.8172 97.822 73.9852 94.754 72.3212 92.882C70.7092 91.01 67.9532 90.074 64.0532 90.074C60.2052 90.074 57.4492 91.01 55.7852 92.882C54.1732 94.754 53.3672 97.822 53.3672 102.086C53.3672 106.35 54.1732 109.444 55.7852 111.368C57.4492 113.24 60.2052 114.176 64.0532 114.176ZM91.6695 120.572V83.6H99.4695L99.8595 87.5C101.523 86.2 103.499 85.108 105.787 84.224C108.127 83.288 110.701 82.82 113.509 82.82C118.293 82.82 121.777 83.938 123.961 86.174C126.145 88.41 127.237 91.894 127.237 96.626V120.572H118.813V97.016C118.813 94.156 118.215 92.154 117.019 91.01C115.875 89.866 113.691 89.294 110.467 89.294C108.543 89.294 106.645 89.684 104.773 90.464C102.953 91.244 101.419 92.258 100.171 93.506V120.572H91.6695Z" fill="#0C151C"/>
<path d="M151.973 121.352C145.473 121.352 140.247 120.52 136.295 118.856V111.368C138.531 112.2 140.923 112.876 143.471 113.396C146.071 113.916 148.645 114.176 151.193 114.176C155.197 114.176 158.187 113.708 160.163 112.772C162.191 111.836 163.205 109.964 163.205 107.156C163.205 105.44 162.789 104.062 161.957 103.022C161.125 101.982 159.747 101.098 157.823 100.37C155.899 99.59 153.247 98.784 149.867 97.952C144.459 96.548 140.663 94.78 138.479 92.648C136.295 90.464 135.203 87.474 135.203 83.678C135.203 79.258 136.815 75.8 140.039 73.304C143.263 70.808 148.073 69.56 154.469 69.56C157.381 69.56 160.111 69.768 162.659 70.184C165.259 70.6 167.287 71.068 168.743 71.588V79.076C164.791 77.568 160.423 76.814 155.639 76.814C151.895 76.814 148.983 77.308 146.903 78.296C144.823 79.284 143.783 81.078 143.783 83.678C143.783 85.186 144.147 86.408 144.875 87.344C145.603 88.28 146.851 89.086 148.619 89.762C150.439 90.438 152.935 91.192 156.107 92.024C160.215 93.064 163.387 94.312 165.623 95.768C167.911 97.172 169.497 98.836 170.381 100.76C171.317 102.632 171.785 104.764 171.785 107.156C171.785 111.576 170.147 115.06 166.871 117.608C163.595 120.104 158.629 121.352 151.973 121.352ZM197.735 121.352C191.079 121.352 186.191 119.688 183.071 116.36C180.003 113.032 178.469 108.274 178.469 102.086C178.469 95.898 180.029 91.14 183.149 87.812C186.269 84.484 191.131 82.82 197.735 82.82C204.391 82.82 209.279 84.484 212.399 87.812C215.519 91.14 217.079 95.898 217.079 102.086C217.079 108.274 215.519 113.032 212.399 116.36C209.331 119.688 204.443 121.352 197.735 121.352ZM197.735 114.176C201.635 114.176 204.391 113.24 206.003 111.368C207.667 109.444 208.499 106.35 208.499 102.086C208.499 97.822 207.667 94.754 206.003 92.882C204.391 91.01 201.635 90.074 197.735 90.074C193.887 90.074 191.131 91.01 189.467 92.882C187.855 94.754 187.049 97.822 187.049 102.086C187.049 106.35 187.855 109.444 189.467 111.368C191.131 113.24 193.887 114.176 197.735 114.176ZM227.613 120.572V90.23H222.231V83.6H227.613V79.076C227.613 75.384 228.627 72.42 230.655 70.184C232.735 67.896 235.803 66.752 239.859 66.752C241.367 66.752 242.745 66.882 243.993 67.142C245.241 67.35 246.385 67.662 247.425 68.078V74.162C245.813 73.59 244.175 73.304 242.511 73.304C240.067 73.304 238.377 73.746 237.441 74.63C236.505 75.514 236.037 77.022 236.037 79.154V83.6H245.709L245.319 90.23H236.037V120.572H227.613ZM265.215 121.352C261.263 121.352 258.299 120.312 256.323 118.232C254.399 116.1 253.437 113.214 253.437 109.574V90.23H247.977V83.6H253.437V75.098L261.861 72.524V83.6H271.689L271.143 90.23H261.861V109.106C261.861 111.238 262.355 112.746 263.343 113.63C264.331 114.462 265.943 114.878 268.179 114.878C269.583 114.878 271.065 114.618 272.625 114.098V120.104C270.597 120.936 268.127 121.352 265.215 121.352Z" fill="#0089BD"/>
</svg>
